<svg preserveAspectRatio="none" width="100%" height="100%" overflow="visible" style="display: block;" viewBox="0 0 24 24" fill="none" xmlns="http://www.w3.org/2000/svg">
<g id="pixel:instagram">
<path id="Vector" d="M17 9V8H16V7H15V6H9V7H8V8H7V9H6V15H7V16H8V17H9V18H15V17H16V16H17V15H18V9H17ZM16 14H15V15H14V16H10V15H9V14H8V10H9V9H10V8H14V9H15V10H16V14Z" fill="var(--fill-0, #2D0000)"/>
<path id="Vector_2" d="M22 5V3H21V2H19V1H5V2H3V3H2V5H1V19H2V21H3V22H5V23H19V22H21V21H22V19H23V5H22ZM21 19H20V20H19V21H5V20H4V19H3V5H4V4H5V3H19V4H20V5H21V19Z" fill="var(--fill-0, #2D0000)"/>
<path id="Vector_3" d="M17 5H19V7H17V5Z" fill="var(--fill-0, #2D0000)"/>
</g>
</svg>
