<svg width="357" height="140" viewBox="0 0 357 140" fill="none" xmlns="http://www.w3.org/2000/svg">
<path d="M48.3078 13.6449C53.3936 2.97008 68.3618 2.97238 73.4493 13.6411L73.5686 13.897L75.0799 17.2164C75.7568 18.6982 76.4346 20.1682 77.098 21.5782C77.4538 21.42 77.8202 21.2762 78.1972 21.1497C82.0097 19.8704 86.5593 20.4779 90.0322 23.5791L90.1968 23.7289L90.4527 23.9692C93.7985 27.1559 96.81 31.8465 98.6585 38.1049C102.561 37.5978 106.749 38.8454 109.786 42.4828H109.787C120.152 54.8969 125.255 77.1997 119.466 96.6023C116.467 106.657 110.458 116.233 100.493 123.215C90.5648 130.172 77.4522 134.038 61.0727 134.038C44.6919 134.038 31.5672 130.171 21.6144 123.227C11.6266 116.258 5.56987 106.699 2.51667 96.6518C-3.37547 77.2617 1.6057 54.9348 11.9794 42.49L12.2278 42.2002C15.2428 38.7801 19.3125 37.6113 23.1109 38.1049C25.0064 31.6871 28.1256 26.9183 31.5734 23.7289L31.738 23.5791C35.2109 20.478 39.7605 19.8704 43.573 21.1497C43.9477 21.2755 44.3117 21.4186 44.6654 21.5757C45.822 19.1142 47.0217 16.4699 48.1889 13.9012L48.3078 13.6449ZM64.4596 18.0388C63.0073 14.8459 58.7504 14.8462 57.2992 18.0397C53.3864 26.6507 48.4889 37.5589 46.5833 37.5592L46.4995 37.5571C44.7434 37.4695 43.116 34.6444 42.0063 32.1695C41.3304 30.6619 39.5819 29.951 38.3691 31.073C35.2069 33.9982 31.4184 40.2874 31.2235 51.3159C31.2135 51.8845 30.9898 52.4355 30.5876 52.8375L30.5077 52.9137C29.6931 53.6494 28.4499 53.6495 27.6353 52.9137L27.5554 52.8375L23.5475 48.8302C22.447 47.73 20.6625 47.7005 19.6661 48.8958C3.48563 68.3068 1.84473 124.032 61.0727 124.032C120.302 124.032 118.311 68.3052 102.105 48.895C101.107 47.7005 99.3232 47.73 98.2227 48.8302L94.2148 52.8375L92.6553 51.2787H92.6558L94.2148 52.8375L94.1349 52.9137C93.3203 53.6496 92.0767 53.6496 91.2621 52.9137L91.1821 52.8375C90.78 52.4355 90.5563 51.8844 90.5462 51.3159C90.3513 40.2876 86.5633 33.9982 83.4012 31.073C82.1883 29.951 80.4394 30.6619 79.7635 32.1695C78.6362 34.6835 76.9749 37.5591 75.1869 37.5592L75.1417 37.5571C73.2048 37.389 68.3457 26.5829 64.4596 18.0388Z" fill="#2D0000"/>
<path fill-rule="evenodd" clip-rule="evenodd" d="M39.8893 61.5483C16.862 61.5483 22.1707 100.014 28.0733 120.761C28.3656 121.788 29.1766 122.58 30.2294 122.887L60.9456 131.821L91.6619 122.887C92.7147 122.58 93.5257 121.788 93.818 120.761C99.7206 100.014 105.029 61.5483 82.002 61.5483C74.9832 61.9409 60.9456 67.4371 60.9456 86.281C60.9456 67.4371 46.9081 61.9409 39.8893 61.5483ZM60.9456 131.821C77.2846 123.556 79.2914 105.222 79.5379 90.0678C79.5626 88.5508 77.4041 88.0411 76.6579 89.3733C71.903 97.8616 64.8776 108.658 60.9456 108.658C57.0137 108.658 49.9883 97.8616 45.2334 89.3733C44.4872 88.0411 42.3288 88.5512 42.3542 90.0682C42.6041 105.005 44.6238 122.532 60.9456 131.821Z" fill="#2D0000"/>
<path d="M330.509 85.6659C330.418 87.2193 330.144 88.7727 330.965 90.6916C333.245 89.2296 334.248 87.1279 335.615 85.3004C337.621 82.7418 339.536 80.0006 342.454 78.173C345.645 76.0714 349.657 76.3455 352.21 78.8127C354.581 81.0971 355.31 85.5745 353.669 88.6813C352.119 91.514 349.657 93.6157 347.104 95.5346C345.281 96.9966 345.281 98.0931 346.831 99.6465C349.931 102.753 353.304 105.495 355.584 109.332C357.681 112.805 357.408 116.917 355.037 119.932C352.484 123.039 349.11 123.587 345.463 122.856C342.727 122.216 340.904 120.298 339.263 118.196C336.892 115.272 335.159 111.891 333.336 108.601C332.698 107.505 332.333 106.043 330.509 105.495C330.783 108.327 331.239 111.069 331.239 113.718C331.239 120.572 326.68 124.318 320.023 123.039C315.738 122.216 313.185 119.201 313.276 114.084C313.55 101.474 313.185 69.4923 313.276 66.02C313.458 60.446 316.741 57.1564 322.029 57.0651C327.318 57.0651 331.147 60.5374 331.147 66.1113C331.147 72.5991 330.692 79.0868 330.509 85.6659Z" fill="#2D0000"/>
<path d="M273.921 115.363C273.647 111.434 273.921 107.414 273.921 103.393C274.285 97.9105 273.647 92.4279 273.465 86.9453C273.191 80.7317 276.747 77.0766 282.309 77.3508C286.23 77.6249 288.51 79.9093 289.604 83.5644C289.877 84.2954 289.877 85.3919 290.698 85.5746C291.792 85.8488 292.066 84.5695 292.522 83.8385C293.707 82.011 294.983 80.2748 296.716 78.9042C299.178 76.8939 301.913 76.2542 305.013 77.0766C309.025 78.1732 311.396 81.9196 311.487 87.2194C311.578 92.6106 309.208 96.9967 305.469 98.1846C302.46 99.1897 299.907 98.3674 297.901 95.9002C296.807 94.5295 295.804 92.4279 293.525 93.5244C291.519 94.4382 291.245 96.4485 291.063 98.4587C290.698 103.484 291.974 108.419 291.974 113.444C291.883 119.841 288.236 123.496 282.218 123.222C277.477 123.039 274.194 120.115 273.921 115.363Z" fill="#2D0000"/>
<path d="M269.739 90.3262C269.83 93.1588 269.647 108.419 270.559 113.17C271.471 117.282 270.194 120.389 267.277 122.125C264.177 123.953 259.526 123.587 256.791 120.846C254.876 118.836 253.508 118.744 251.502 120.572C250.226 121.577 248.585 122.308 246.943 122.856C240.378 124.866 233.813 122.125 231.351 116.46C228.616 109.881 230.987 102.753 237.096 99.2811C240.105 97.5449 243.478 96.8139 246.852 96.1743C247.582 95.9915 248.402 96.0829 249.132 95.8087C250.682 95.1691 252.688 95.2605 253.235 93.1588C253.417 92.3364 253.326 91.514 252.505 91.0572C250.682 89.8693 249.04 90.8744 247.399 91.6968C245.849 92.4278 244.573 93.6157 243.022 94.3467C239.74 95.9915 236.093 95.2605 233.904 92.7933C231.807 90.2348 231.807 86.2142 233.904 83.1988C239.922 74.8835 260.256 74.3353 266.73 82.3764C268.553 84.6608 269.647 87.3107 269.739 90.3262ZM253.964 104.672C254.055 103.302 253.599 102.662 252.323 102.753C249.861 102.662 246.67 104.855 246.579 106.774C246.487 108.51 247.49 109.241 249.04 109.332C251.32 109.515 253.873 107.048 253.964 104.672Z" fill="#2D0000"/>
<path d="M185.854 130.623C185.672 122.947 185.945 92.976 186.128 85.6659C186.219 80.0005 190.048 76.8023 195.519 77.442C196.978 77.5334 198.346 77.9902 199.166 78.9954C202.084 82.4677 203.178 81.1884 205.731 79.0868C210.291 75.3403 217.038 76.0713 221.779 80.1833C224.606 82.7418 226.521 86.0314 227.433 89.7778C229.53 98.0931 229.621 106.317 225.609 114.175C221.232 122.765 213.938 125.049 205.458 120.663C203.543 119.658 203.178 120.298 203.27 121.942C203.452 124.592 203.817 127.242 203.817 129.892C203.999 135.832 200.808 139.395 195.246 139.669C189.684 139.852 186.128 136.654 185.854 130.623ZM207.737 107.322C210.017 107.688 211.476 104.855 211.476 100.652C211.476 98.0931 211.385 95.5345 210.017 93.3415C208.558 91.0571 206.187 91.1485 204.911 93.5242C203.634 95.8087 203.634 98.3672 203.817 100.926C204.181 103.576 204.273 106.682 207.737 107.322Z" fill="#2D0000"/>
<path d="M150.53 79.8178C154.816 76.711 159.831 76.3455 164.845 76.4369C169.04 76.4369 173.052 77.3506 176.608 79.4523C178.796 80.7316 180.62 82.285 181.44 84.6608C182.443 87.4934 182.352 90.3261 180.073 92.6105C177.793 94.8949 175.058 95.1691 172.14 94.1639C170.772 93.707 169.587 92.7933 168.31 92.0623C167.034 91.2399 165.757 90.5089 164.207 90.3261C162.84 90.3261 161.289 90.1433 160.925 91.9709C160.651 93.707 161.837 94.6208 163.204 94.9863C166.031 95.6259 169.04 95.9914 171.866 96.5397C178.796 98.0017 182.626 101.565 183.173 106.774C183.72 113.17 180.529 118.653 174.328 121.211C166.943 124.318 159.375 124.318 151.989 121.303C148.068 119.658 145.059 116.825 144.512 112.256C143.783 106.043 149.436 101.657 155.18 103.941C157.277 104.764 159.192 106.134 161.198 107.139C162.566 107.87 164.025 108.236 165.393 107.231C166.213 106.682 166.304 105.677 166.031 104.764C165.575 103.119 164.116 103.027 162.84 102.753C159.375 101.84 155.819 101.84 152.536 100.378C148.615 98.55 145.88 95.9914 145.515 91.514C144.968 86.671 146.518 82.7418 150.53 79.8178Z" fill="#2D0000"/>
<path d="M294.106 19.8303C299.212 20.013 302.768 23.2112 302.586 28.9679C302.312 38.3797 302.404 47.7001 302.586 57.0205C302.586 63.691 298.209 66.9805 292.009 66.0668C287.906 65.5185 285.444 63.1427 284.988 58.9394C284.259 53.7309 285.444 43.5882 284.714 30.1558C284.259 22.8457 287.997 19.6475 294.106 19.8303ZM293.924 18.0027C288.362 18.0941 284.35 14.3477 284.35 9.13921C284.259 4.1135 288.271 0.184312 293.468 0.00156174C298.848 -0.089819 302.951 3.83937 302.951 9.04783C302.951 14.1649 299.212 17.9114 293.924 18.0027Z" fill="#2D0000"/>
<path d="M232.194 25.3129C232.559 26.4095 232.923 27.4146 233.47 28.8766C239.762 15.8098 253.166 17.9114 257.725 28.0542C258.18 28.5111 259.366 25.9526 260.186 24.856C263.378 20.6527 267.39 18.5511 272.678 19.739C277.693 20.9269 279.699 24.7647 280.793 29.3335C281.249 31.7093 281.432 34.0851 281.432 36.5522C281.34 43.04 280.793 49.5277 281.34 56.0154C281.888 62.4118 278.331 66.0669 272.496 66.2496C266.569 66.341 262.922 62.5945 262.831 56.2896C262.831 54.2793 263.013 52.3604 263.287 50.4415C263.651 46.7864 263.743 43.1314 263.469 39.4763C263.378 37.8315 262.831 36.0954 260.916 36.004C259.183 35.9126 258.454 37.3746 257.998 38.928C257.451 40.5728 257.36 42.309 257.36 43.9537C257.542 47.9743 257.907 51.9949 257.998 55.9241C257.998 62.5032 254.533 66.2496 248.698 66.2496C242.771 66.1582 239.397 62.5032 239.488 55.8327C239.58 51.0811 240.127 46.2382 240.127 41.4866C240.127 39.2935 240.4 36.0954 237.391 36.0954C234.382 36.0954 234.109 39.2022 234.109 41.6693C234.109 46.2382 234.382 50.807 234.473 55.3758C234.656 63.1428 230.188 67.3461 223.076 65.9755C219.976 65.3358 217.97 63.5083 217.058 60.5843C216.693 59.4877 216.328 58.3912 216.42 57.2947C217.058 47.5174 216.511 37.8315 216.328 28.1456C216.146 22.0234 221.799 18.4597 227.544 20.5614C229.823 21.4751 231.373 23.0285 232.194 25.3129Z" fill="#2D0000"/>
<path d="M163.808 25.3129C164.173 26.4095 164.538 27.4146 165.085 28.8766C171.376 15.8098 184.78 17.9114 189.339 28.0542C189.795 28.5111 190.98 25.9526 191.801 24.856C194.992 20.6527 199.004 18.5511 204.292 19.739C209.307 20.9269 211.313 24.7647 212.408 29.3335C212.863 31.7093 213.046 34.0851 213.046 36.5522C212.955 43.04 212.408 49.5277 212.955 56.0154C213.502 62.4118 209.946 66.0669 204.11 66.2496C198.183 66.341 194.536 62.5945 194.445 56.2896C194.445 54.2793 194.627 52.3604 194.901 50.4415C195.266 46.7864 195.357 43.1314 195.083 39.4763C194.992 37.8315 194.445 36.0954 192.53 36.004C190.798 35.9126 190.068 37.3746 189.612 38.928C189.065 40.5728 188.974 42.309 188.974 43.9537C189.156 47.9743 189.521 51.9949 189.612 55.9241C189.612 62.5032 186.147 66.2496 180.312 66.2496C174.385 66.1582 171.011 62.5032 171.103 55.8327C171.194 51.0811 171.741 46.2382 171.741 41.4866C171.741 39.2935 172.014 36.0954 169.005 36.0954C165.996 36.0954 165.723 39.2022 165.723 41.6693C165.723 46.2382 165.996 50.807 166.088 55.3758C166.27 63.1428 161.802 67.3461 154.69 65.9755C151.59 65.3358 149.584 63.5083 148.672 60.5843C148.307 59.4877 147.943 58.3912 148.034 57.2947C148.672 47.5174 148.125 37.8315 147.943 28.1456C147.76 22.0234 153.413 18.4597 159.158 20.5614C161.437 21.4751 162.987 23.0285 163.808 25.3129Z" fill="#2D0000"/>
</svg>
