<svg width="24" height="24" viewBox="0 0 24 24" fill="none" xmlns="http://www.w3.org/2000/svg">
<path d="M6.00049 1.99976H14.0005V3.99976H6.00049V1.99976ZM4.00049 5.99976V3.99976H6.00049V5.99976H4.00049ZM4.00049 13.9998H2.00049V5.99976H4.00049V13.9998ZM6.00049 15.9998H4.00049V13.9998H6.00049V15.9998ZM14.0005 15.9998V17.9998H6.00049V15.9998H14.0005ZM16.0005 13.9998H14.0005V15.9998H16.0005V17.9998H18.0005V19.9998H20.0005V21.9998H22.0005V19.9998H20.0005V17.9998H18.0005V15.9998H16.0005V13.9998ZM16.0005 5.99976H18.0005V13.9998H16.0005V5.99976ZM16.0005 5.99976V3.99976H14.0005V5.99976H16.0005Z" fill="black" fill-opacity="0.48"/>
</svg>
