<svg width="568" height="112" viewBox="0 0 568 112" fill="none" xmlns="http://www.w3.org/2000/svg">
<path d="M28.08 88.4402C22.6 88.4402 18.08 87.5202 14.52 85.6802C10.96 83.8402 8.18 81.4802 6.18 78.6002C4.18 75.6802 3.04 72.9602 2.76 70.4402C2.52 67.8802 3 65.7802 4.2 64.1402C5.44 62.4602 7.04 61.3602 9 60.8402C10.92 60.3602 12.62 60.4602 14.1 61.1402C15.62 61.8202 16.72 62.7402 17.4 63.9002C18.08 65.0202 18.84 66.2202 19.68 67.5002C20.52 68.7802 21.62 69.9202 22.98 70.9202C24.38 71.8802 26.1 72.3602 28.14 72.3602C30.42 72.3602 32.18 71.8402 33.42 70.8002C34.66 69.7202 35.28 68.1202 35.28 66.0002V63.0002C35.28 60.2402 34.52 58.0602 33 56.4602C31.48 54.8602 27.88 52.3802 22.2 49.0202C15.92 45.2602 11.32 41.5202 8.4 37.8002C5.52 34.0402 4.08 29.4002 4.08 23.8802V22.0202C4.08 15.3402 6.34 10.0002 10.86 6.00017C15.38 2.00017 21.5 0.000171661 29.22 0.000171661C34.1 0.000171661 38.18 0.780172 41.46 2.34017C44.74 3.90017 47.26 6.00017 49.02 8.64017C50.78 11.2402 51.72 13.6802 51.84 15.9602C51.96 18.2002 51.48 20.0802 50.4 21.6002C49.32 23.0802 47.94 24.0802 46.26 24.6002C44.54 25.0802 42.96 25.0802 41.52 24.6002C40.12 24.1202 39.04 23.4202 38.28 22.5002C37.56 21.5802 36.84 20.5802 36.12 19.5002C35.44 18.3802 34.54 17.4602 33.42 16.7402C32.34 16.0202 30.98 15.6602 29.34 15.6602C27.26 15.6602 25.6 16.1402 24.36 17.1002C23.16 18.0202 22.56 19.3602 22.56 21.1202V22.9202C22.56 25.1602 23.28 27.1202 24.72 28.8002C26.16 30.4802 29.9 32.9602 35.94 36.2402C42.46 39.8802 47.06 43.5802 49.74 47.3402C52.46 51.1002 53.82 55.9802 53.82 61.9802V64.9202C53.82 72.4002 51.46 78.2002 46.74 82.3202C42.06 86.4002 35.84 88.4402 28.08 88.4402ZM68.9813 111.54C66.5813 111.54 64.5213 110.66 62.8013 108.9C61.0813 107.18 60.2213 105.12 60.2213 102.72V31.6202C60.2213 29.3802 61.0613 27.4202 62.7413 25.7402C64.4613 24.0202 66.4813 23.1602 68.8013 23.1602C70.9213 23.1602 72.7613 23.8202 74.3213 25.1402C75.8813 26.4602 76.6613 27.8802 76.6613 29.4002V33.9002L72.4613 29.8202H76.6013C77.8413 27.7802 79.7213 26.1202 82.2413 24.8402C84.7613 23.5602 87.6813 22.9202 91.0013 22.9202C97.0013 22.9202 101.881 25.2202 105.641 29.8202C109.441 34.3802 111.341 40.6002 111.341 48.4802V61.0202C111.341 69.8602 109.401 76.6402 105.521 81.3602C101.681 86.0802 96.7213 88.4402 90.6413 88.4402C87.8013 88.4402 85.2413 87.8602 82.9613 86.7002C80.7213 85.5402 78.9413 83.8602 77.6213 81.6602L77.6813 81.7802V102.72C77.6813 105.12 76.8213 107.18 75.1013 108.9C73.4213 110.66 71.3813 111.54 68.9813 111.54ZM85.7213 72.2402C88.1613 72.2402 90.1613 71.4202 91.7213 69.7802C93.2813 68.1002 94.0613 65.6802 94.0613 62.5202V48.4802C94.0613 45.5602 93.2813 43.2802 91.7213 41.6402C90.1613 40.0002 88.1613 39.1802 85.7213 39.1802C83.2413 39.1802 81.2213 40.0402 79.6613 41.7602C78.1413 43.4402 77.3813 45.6602 77.3813 48.4202V62.6402C77.3813 65.7202 78.1613 68.1002 79.7213 69.7802C81.2813 71.4202 83.2813 72.2402 85.7213 72.2402ZM132.04 88.4402C126.92 88.4402 122.8 86.9402 119.68 83.9402C116.56 80.9402 115 76.7802 115 71.4602V65.5202C115 60.0402 116.78 55.8002 120.34 52.8002C123.94 49.7602 128.66 48.2402 134.5 48.2402C136.7 48.2402 138.7 48.4602 140.5 48.9002C142.3 49.3002 143.94 49.8802 145.42 50.6402V43.7402C145.42 41.5802 144.76 39.9602 143.44 38.8802C142.16 37.7602 140.54 37.2002 138.58 37.2002C137.26 37.2002 136.12 37.4402 135.16 37.9202C134.2 38.4002 133.3 39.0602 132.46 39.9002C131.66 40.7002 130.84 41.5402 130 42.4202C129.2 43.2602 128.08 43.8002 126.64 44.0402C125.2 44.2802 123.72 44.0202 122.2 43.2602C120.64 42.5002 119.54 41.3202 118.9 39.7202C118.3 38.0802 118.32 36.3002 118.96 34.3802C119.6 32.4602 120.8 30.6202 122.56 28.8602C124.32 27.1002 126.6 25.6802 129.4 24.6002C132.24 23.4802 135.74 22.9202 139.9 22.9202C147.26 22.9202 152.9 24.6802 156.82 28.2002C160.78 31.7202 162.76 36.8002 162.76 43.4402V79.7402C162.76 82.0202 161.94 83.9802 160.3 85.6202C158.66 87.2602 156.7 88.0802 154.42 88.0802C152.14 88.0802 150.2 87.3802 148.6 85.9802C147.04 84.5802 146.26 82.9202 146.26 81.0002V77.6402L148.48 80.4002H146.38C144.9 83.0802 142.98 85.1002 140.62 86.4602C138.26 87.7802 135.4 88.4402 132.04 88.4402ZM137.92 75.9602C140.24 75.9602 142.06 75.1802 143.38 73.6202C144.7 72.0602 145.38 70.2802 145.42 68.2802V60.3602C144.66 59.6002 143.7 59.0202 142.54 58.6202C141.38 58.2202 140.06 58.0202 138.58 58.0202C136.54 58.0202 134.9 58.5002 133.66 59.4602C132.42 60.3802 131.8 61.8002 131.8 63.7202V70.5002C131.8 72.3002 132.36 73.6602 133.48 74.5802C134.6 75.5002 136.08 75.9602 137.92 75.9602ZM179.841 88.1402C177.441 88.1402 175.381 87.2802 173.661 85.5602C171.941 83.8402 171.081 81.7602 171.081 79.3202V31.6202C171.081 29.3402 171.901 27.3802 173.541 25.7402C175.181 24.1002 177.121 23.2802 179.361 23.2802C181.641 23.2802 183.561 24.0602 185.121 25.6202C186.681 27.1402 187.461 28.9202 187.461 30.9602V33.6002L186.021 31.6202H187.461C188.621 28.6602 190.141 26.4802 192.021 25.0802C193.941 23.6402 196.001 22.9202 198.201 22.9202C199.081 22.9202 199.921 23.0402 200.721 23.2802C201.561 23.5202 202.321 23.9802 203.001 24.6602C203.721 25.3002 204.301 26.1602 204.741 27.2402C205.181 28.2802 205.381 29.5602 205.341 31.0802C205.341 32.6402 205.121 33.9802 204.681 35.1002C204.241 36.1802 203.621 37.0602 202.821 37.7402C202.061 38.4202 201.181 38.9002 200.181 39.1802C199.221 39.4202 198.141 39.6202 196.941 39.7802C194.341 39.9402 192.281 40.8402 190.761 42.4802C189.281 44.1202 188.541 46.5002 188.541 49.6202V79.3202C188.541 81.7602 187.681 83.8402 185.961 85.5602C184.281 87.2802 182.241 88.1402 179.841 88.1402ZM220.363 75.6002L220.423 52.0202L238.543 27.1802C239.263 26.1402 240.223 25.2202 241.423 24.4202C242.623 23.6202 243.923 23.2202 245.323 23.2202C248.603 23.2202 250.923 24.6402 252.283 27.4802C253.643 30.3202 253.183 33.0602 250.903 35.7002L220.363 75.6002ZM216.463 88.1402C214.063 88.1402 211.983 87.2602 210.223 85.5002C208.503 83.7402 207.643 81.6402 207.643 79.2002V9.12017C207.643 6.68017 208.503 4.60017 210.223 2.88017C211.943 1.16017 214.003 0.300171 216.403 0.300171C218.763 0.300171 220.803 1.16017 222.523 2.88017C224.243 4.60017 225.103 6.68017 225.103 9.12017V79.3202C225.103 81.7602 224.243 83.8402 222.523 85.5602C220.843 87.2802 218.823 88.1402 216.463 88.1402ZM246.763 88.1402C245.043 88.1402 243.443 87.5802 241.963 86.4602C240.523 85.3402 239.423 84.1002 238.663 82.7402L226.363 58.6202L237.583 42.4202L254.083 75.6002C255.803 78.4802 255.843 81.3002 254.203 84.0602C252.563 86.7802 250.083 88.1402 246.763 88.1402ZM260.189 29.5202L265.829 19.9802C264.149 19.2202 262.769 18.0602 261.689 16.5002C260.649 14.9002 260.129 12.9802 260.129 10.7402C260.129 7.66017 261.149 5.10017 263.189 3.06017C265.269 1.02017 267.889 0.000171661 271.049 0.000171661C274.129 0.000171661 276.709 1.02017 278.789 3.06017C280.869 5.10017 281.909 7.68017 281.909 10.8002C281.909 12.4802 281.509 14.2402 280.709 16.0802C279.909 17.8802 278.809 19.9802 277.409 22.3802L274.949 26.4602C273.349 29.1802 271.049 30.7002 268.049 31.0202C265.049 31.3402 262.429 30.8402 260.189 29.5202ZM300.349 88.2602C297.749 88.2602 295.489 87.3002 293.569 85.3802C291.689 83.4602 290.749 81.1602 290.749 78.4802V12.1202C290.749 9.16017 291.689 6.62017 293.569 4.50017C295.449 2.34017 297.709 1.26017 300.349 1.26017H318.349C325.589 1.26017 331.449 3.56017 335.929 8.16017C340.409 12.7202 342.649 19.2202 342.649 27.6602V34.7402C342.649 43.1002 340.309 49.5802 335.629 54.1802C330.989 58.7802 325.069 61.1002 317.869 61.1402H301.729V44.1002H316.489C318.889 44.1002 320.789 43.4002 322.189 42.0002C323.629 40.5602 324.329 38.4402 324.289 35.6402V27.9602C324.289 25.2002 323.569 23.1402 322.129 21.7802C320.689 20.4202 318.749 19.7402 316.309 19.7402H309.949V78.4802C309.949 81.1602 309.009 83.4602 307.129 85.3802C305.249 87.3002 302.989 88.2602 300.349 88.2602ZM361.962 88.4402C356.842 88.4402 352.722 86.9402 349.602 83.9402C346.482 80.9402 344.922 76.7802 344.922 71.4602V65.5202C344.922 60.0402 346.702 55.8002 350.262 52.8002C353.862 49.7602 358.582 48.2402 364.422 48.2402C366.622 48.2402 368.622 48.4602 370.422 48.9002C372.222 49.3002 373.862 49.8802 375.342 50.6402V43.7402C375.342 41.5802 374.682 39.9602 373.362 38.8802C372.082 37.7602 370.462 37.2002 368.502 37.2002C367.182 37.2002 366.042 37.4402 365.082 37.9202C364.122 38.4002 363.222 39.0602 362.382 39.9002C361.582 40.7002 360.762 41.5402 359.922 42.4202C359.122 43.2602 358.002 43.8002 356.562 44.0402C355.122 44.2802 353.642 44.0202 352.122 43.2602C350.562 42.5002 349.462 41.3202 348.822 39.7202C348.222 38.0802 348.242 36.3002 348.882 34.3802C349.522 32.4602 350.722 30.6202 352.482 28.8602C354.242 27.1002 356.522 25.6802 359.322 24.6002C362.162 23.4802 365.662 22.9202 369.822 22.9202C377.182 22.9202 382.822 24.6802 386.742 28.2002C390.702 31.7202 392.682 36.8002 392.682 43.4402V79.7402C392.682 82.0202 391.862 83.9802 390.222 85.6202C388.582 87.2602 386.622 88.0802 384.342 88.0802C382.062 88.0802 380.122 87.3802 378.522 85.9802C376.962 84.5802 376.182 82.9202 376.182 81.0002V77.6402L378.402 80.4002H376.302C374.822 83.0802 372.902 85.1002 370.542 86.4602C368.182 87.7802 365.322 88.4402 361.962 88.4402ZM367.842 75.9602C370.162 75.9602 371.982 75.1802 373.302 73.6202C374.622 72.0602 375.302 70.2802 375.342 68.2802V60.3602C374.582 59.6002 373.622 59.0202 372.462 58.6202C371.302 58.2202 369.982 58.0202 368.502 58.0202C366.462 58.0202 364.822 58.5002 363.582 59.4602C362.342 60.3802 361.722 61.8002 361.722 63.7202V70.5002C361.722 72.3002 362.282 73.6602 363.402 74.5802C364.522 75.5002 366.002 75.9602 367.842 75.9602ZM419.303 88.4402C415.143 88.4402 411.663 87.9002 408.863 86.8202C406.063 85.7402 403.783 84.2402 402.023 82.3202C400.263 80.3602 399.203 78.3802 398.843 76.3802C398.523 74.3802 398.763 72.7002 399.563 71.3402C400.403 69.9402 401.563 68.9802 403.043 68.4602C404.523 67.9002 405.863 67.8002 407.063 68.1602C408.263 68.5202 409.203 69.2002 409.883 70.2002C410.603 71.1602 411.343 72.0602 412.103 72.9002C412.903 73.7402 413.823 74.3802 414.863 74.8202C415.903 75.2602 417.243 75.4802 418.883 75.4802C420.523 75.4802 421.843 75.1202 422.843 74.4002C423.843 73.6802 424.343 72.4802 424.343 70.8002V70.2602C424.343 68.2202 423.663 66.6402 422.303 65.5202C420.983 64.4002 418.343 62.7802 414.383 60.6602C409.343 58.2602 405.583 55.6602 403.103 52.8602C400.623 50.0202 399.383 46.2602 399.383 41.5802V40.5002C399.383 34.9002 401.223 30.5802 404.903 27.5402C408.583 24.4602 413.563 22.9202 419.843 22.9202C423.443 22.9202 426.523 23.4202 429.083 24.4202C431.643 25.3802 433.683 26.7802 435.203 28.6202C436.763 30.4202 437.723 32.1202 438.083 33.7202C438.443 35.3202 438.343 36.7602 437.783 38.0402C437.223 39.3202 436.343 40.2602 435.143 40.8602C433.903 41.5002 432.623 41.7802 431.303 41.7002C430.023 41.6202 428.963 41.2002 428.123 40.4402C427.323 39.6802 426.543 38.8802 425.783 38.0402C425.023 37.2002 424.203 36.6002 423.323 36.2402C422.443 35.8402 421.423 35.6402 420.263 35.6402C418.583 35.6402 417.303 36.0002 416.423 36.7202C415.543 37.4402 415.103 38.5802 415.103 40.1402V40.8002C415.103 42.4802 415.703 43.8402 416.903 44.8802C418.143 45.9202 421.063 47.6002 425.663 49.9202C430.663 51.9602 434.363 54.4402 436.763 57.3602C439.203 60.2802 440.423 64.3802 440.423 69.6602V69.9002C440.423 75.8602 438.503 80.4402 434.663 83.6402C430.823 86.8402 425.703 88.4402 419.303 88.4402ZM464.537 88.4402C460.377 88.4402 456.897 87.9002 454.097 86.8202C451.297 85.7402 449.017 84.2402 447.257 82.3202C445.497 80.3602 444.437 78.3802 444.077 76.3802C443.757 74.3802 443.997 72.7002 444.797 71.3402C445.637 69.9402 446.797 68.9802 448.277 68.4602C449.757 67.9002 451.097 67.8002 452.297 68.1602C453.497 68.5202 454.437 69.2002 455.117 70.2002C455.837 71.1602 456.577 72.0602 457.337 72.9002C458.137 73.7402 459.057 74.3802 460.097 74.8202C461.137 75.2602 462.477 75.4802 464.117 75.4802C465.757 75.4802 467.077 75.1202 468.077 74.4002C469.077 73.6802 469.577 72.4802 469.577 70.8002V70.2602C469.577 68.2202 468.897 66.6402 467.537 65.5202C466.217 64.4002 463.577 62.7802 459.617 60.6602C454.577 58.2602 450.817 55.6602 448.337 52.8602C445.857 50.0202 444.617 46.2602 444.617 41.5802V40.5002C444.617 34.9002 446.457 30.5802 450.137 27.5402C453.817 24.4602 458.797 22.9202 465.077 22.9202C468.677 22.9202 471.757 23.4202 474.317 24.4202C476.877 25.3802 478.917 26.7802 480.437 28.6202C481.997 30.4202 482.957 32.1202 483.317 33.7202C483.677 35.3202 483.577 36.7602 483.017 38.0402C482.457 39.3202 481.577 40.2602 480.377 40.8602C479.137 41.5002 477.857 41.7802 476.537 41.7002C475.257 41.6202 474.197 41.2002 473.357 40.4402C472.557 39.6802 471.777 38.8802 471.017 38.0402C470.257 37.2002 469.437 36.6002 468.557 36.2402C467.677 35.8402 466.657 35.6402 465.497 35.6402C463.817 35.6402 462.537 36.0002 461.657 36.7202C460.777 37.4402 460.337 38.5802 460.337 40.1402V40.8002C460.337 42.4802 460.937 43.8402 462.137 44.8802C463.377 45.9202 466.297 47.6002 470.897 49.9202C475.897 51.9602 479.597 54.4402 481.997 57.3602C484.437 60.2802 485.657 64.3802 485.657 69.6602V69.9002C485.657 75.8602 483.737 80.4402 479.897 83.6402C476.057 86.8402 470.937 88.4402 464.537 88.4402Z" fill="#2D0000"/>
<path d="M529.445 19.3521C530.453 17.1325 533.413 17.1318 534.422 19.3511C537.144 25.3357 540.552 32.917 541.877 32.9185C543.12 32.9185 544.275 30.9198 545.059 29.1724C545.529 28.1247 546.744 27.6309 547.587 28.4107C549.785 30.4439 552.417 34.8152 552.553 42.48C552.56 42.8752 552.716 43.2582 552.995 43.5376C553.577 44.1195 554.521 44.1195 555.103 43.5376L557.889 40.7525C558.654 39.9879 559.894 39.9672 560.587 40.7974C569.14 51.0415 571.995 75.8372 554.852 87.1802C560.302 78.0899 557.951 65.5401 552.987 59.6285C552.478 59.0227 551.568 59.0374 551.006 59.5953L548.96 61.6294C548.533 62.0542 547.84 62.0541 547.412 61.6294C547.207 61.4254 547.093 61.1455 547.088 60.857C546.989 55.2607 545.055 52.0688 543.441 50.5845C542.822 50.0157 541.929 50.3764 541.584 51.1412C541.009 52.4169 540.161 53.8765 539.248 53.8765C538.276 53.8755 535.772 48.3405 533.774 43.9712C533.032 42.3511 530.86 42.3511 530.119 43.9712C528.122 48.3409 525.622 53.8765 524.65 53.8765C523.737 53.8764 522.889 52.4169 522.314 51.1412C521.969 50.3764 521.076 50.0155 520.457 50.5845C518.843 52.0688 516.91 55.2607 516.811 60.857C516.806 61.1455 516.691 61.4254 516.486 61.6294C516.058 62.0538 515.366 62.0538 514.939 61.6294L512.893 59.5953C512.331 59.0371 511.42 59.022 510.911 59.6285C505.969 65.5237 503.686 78.0201 509.129 87.104C492.048 75.7259 494.769 51.0193 503.288 40.7984C503.981 39.9676 505.221 39.9879 505.986 40.7525L508.772 43.5376C509.354 44.1195 510.297 44.1195 510.879 43.5376C511.159 43.2582 511.315 42.8752 511.322 42.48C511.457 34.8152 514.09 30.4439 516.287 28.4107C517.13 27.6309 518.346 28.1246 518.816 29.1724C519.599 30.9198 520.755 32.9185 521.997 32.9185C523.322 32.9167 526.725 25.3364 529.445 19.3521Z" fill="#2D0000"/>
</svg>
